<svg xmlns="http://www.w3.org/2000/svg" width="170" height="170" viewBox="0 0 170 170">
    <path d="M-3375 8635a85.664 85.664 0 0 1-17.13-1.727 84.567 84.567 0 0 1-15.955-4.953 85.089 85.089 0 0 1-14.438-7.837 85.719 85.719 0 0 1-12.58-10.379 85.665 85.665 0 0 1-10.379-12.58 85.028 85.028 0 0 1-7.837-14.439 84.589 84.589 0 0 1-4.953-15.955A85.634 85.634 0 0 1-3460 8550a85.637 85.637 0 0 1 1.727-17.131 84.58 84.58 0 0 1 4.953-15.956 85.1 85.1 0 0 1 7.837-14.439 85.7 85.7 0 0 1 10.383-12.574 85.6 85.6 0 0 1 12.58-10.379 84.952 84.952 0 0 1 14.438-7.837 84.567 84.567 0 0 1 15.955-4.953A85.666 85.666 0 0 1-3375 8465a85.666 85.666 0 0 1 17.13 1.727 84.586 84.586 0 0 1 15.956 4.953 84.924 84.924 0 0 1 14.438 7.837 85.6 85.6 0 0 1 12.58 10.379 85.7 85.7 0 0 1 10.379 12.579 85.1 85.1 0 0 1 7.837 14.439 84.58 84.58 0 0 1 4.953 15.956A85.637 85.637 0 0 1-3290 8550a85.634 85.634 0 0 1-1.727 17.13 84.589 84.589 0 0 1-4.953 15.955 85.028 85.028 0 0 1-7.837 14.439 85.665 85.665 0 0 1-10.379 12.58 85.719 85.719 0 0 1-12.58 10.379 85.061 85.061 0 0 1-14.438 7.837 84.586 84.586 0 0 1-15.956 4.953A85.664 85.664 0 0 1-3375 8635zm-19-115v60l52-30-52-30z" transform="translate(3460 -8465)" style="fill:#fff;opacity:.7"/>
</svg>
